<svg width="1900" height="902" viewBox="0 0 1920 902" fill="none" xmlns="http://www.w3.org/2000/svg">
<g clip-path="url(#clip0_10166_11365)">
<rect width="1900" height="902" fill="white"/>
<g filter="url(#filter0_f_10166_11365)">
<ellipse cx="742.932" cy="241.63" rx="412.366" ry="398.07" transform="rotate(0.562416 742.932 241.63)" fill="#DBF6FF"/>
</g>
<g filter="url(#filter1_f_10166_11365)">
<ellipse cx="1447.61" cy="110.903" rx="430.89" ry="460.95" fill="#FFCECE"/>
</g>
<g filter="url(#filter2_f_10166_11365)">
<ellipse cx="1575.44" cy="643.728" rx="412.366" ry="398.07" transform="rotate(0.562416 1575.44 643.728)" fill="#DBF6FF"/>
</g>
<path d="M1417.56 763.871L1587.16 435.356L1756.76 763.871H1417.56Z" stroke="#ACB5BD" stroke-width="4"/>
<path d="M1251.83 182.465C1251.83 237.353 1207.13 281.856 1151.97 281.856C1096.82 281.856 1052.11 237.353 1052.11 182.465C1052.11 127.578 1096.82 83.0745 1151.97 83.0745C1207.13 83.0745 1251.83 127.578 1251.83 182.465Z" stroke="#898989" stroke-width="1.90629"/>
<g filter="url(#filter3_f_10166_11365)">
<ellipse cx="114.456" cy="89.0038" rx="166.616" ry="178.349" fill="#FFCECE"/>
</g>
<g filter="url(#filter4_f_10166_11365)">
<ellipse cx="201.284" cy="844.658" rx="412.366" ry="398.07" transform="rotate(0.562416 201.284 844.658)" fill="#FFF4E2"/>
</g>
</g>
<defs>
<filter id="filter0_f_10166_11365" x="-91.4337" y="-578.443" width="1668.73" height="1640.14" filterUnits="userSpaceOnUse" color-interpolation-filters="sRGB">
<feFlood flood-opacity="0" result="BackgroundImageFix"/>
<feBlend mode="normal" in="SourceGraphic" in2="BackgroundImageFix" result="shape"/>
<feGaussianBlur stdDeviation="211" result="effect1_foregroundBlur_10166_11365"/>
</filter>
<filter id="filter1_f_10166_11365" x="685.718" y="-681.047" width="1523.78" height="1583.9" filterUnits="userSpaceOnUse" color-interpolation-filters="sRGB">
<feFlood flood-opacity="0" result="BackgroundImageFix"/>
<feBlend mode="normal" in="SourceGraphic" in2="BackgroundImageFix" result="shape"/>
<feGaussianBlur stdDeviation="165.5" result="effect1_foregroundBlur_10166_11365"/>
</filter>
<filter id="filter2_f_10166_11365" x="741.074" y="-176.344" width="1668.73" height="1640.14" filterUnits="userSpaceOnUse" color-interpolation-filters="sRGB">
<feFlood flood-opacity="0" result="BackgroundImageFix"/>
<feBlend mode="normal" in="SourceGraphic" in2="BackgroundImageFix" result="shape"/>
<feGaussianBlur stdDeviation="211" result="effect1_foregroundBlur_10166_11365"/>
</filter>
<filter id="filter3_f_10166_11365" x="-383.16" y="-420.345" width="995.231" height="1018.7" filterUnits="userSpaceOnUse" color-interpolation-filters="sRGB">
<feFlood flood-opacity="0" result="BackgroundImageFix"/>
<feBlend mode="normal" in="SourceGraphic" in2="BackgroundImageFix" result="shape"/>
<feGaussianBlur stdDeviation="165.5" result="effect1_foregroundBlur_10166_11365"/>
</filter>
<filter id="filter4_f_10166_11365" x="-569.082" y="88.5859" width="1540.73" height="1512.14" filterUnits="userSpaceOnUse" color-interpolation-filters="sRGB">
<feFlood flood-opacity="0" result="BackgroundImageFix"/>
<feBlend mode="normal" in="SourceGraphic" in2="BackgroundImageFix" result="shape"/>
<feGaussianBlur stdDeviation="179" result="effect1_foregroundBlur_10166_11365"/>
</filter>
<clipPath id="clip0_10166_11365">
<rect width="1900" height="902" fill="white"/>
</clipPath>
</defs>
</svg>
